<svg width="32" height="32" viewBox="0 0 32 32" xmlns="http://www.w3.org/2000/svg">
<rect width="32" height="32" rx="7" fill="#0a0a0a"/>
<g transform="translate(5,5) scale(0.173)">
<path d="M3.22 0.11C8.61-0.12 15.26 0.08 20.75 0.08L54.9 0.08 98.53 0.08C105.88 0.08 113.23 0.05 120.58 0.09 121.84 0.09 125.58 0.18 125.8 1.98 126.28 5.93 126.09 10.2 126.1 14.2L126.1 37.34 126.1 94.18C126.1 103.23 126.1 112.28 126.13 121.32 126.15 124.1 125.88 125.5 123 126.15 120.09 126.36 116.48 126.3 113.53 126.31L95.72 126.27 39.54 126.28 14.76 126.29C10.86 126.29 6.29 126.42 2.4 126 1.57 125.91 0.65 124.64 0.2 123.97-0.15 120.03 0.07 112.64 0.07 108.4L0.08 79.54 0.07 29.33C0.07 21.22 0.07 13.11 0.07 5 0.07 2.45 0.33 0.61 3.22 0.11ZM115.3 86.82C115.87 82.46 115.52 77.68 115.58 73.25 115.6 71.61 115.47 69.94 115.63 68.3L86.68 68.28C82.42 68.28 74.9 68.04 70.84 68.34 69.32 70.25 77.8 76.34 79.36 77.24 88.28 82.39 98.73 85.06 108.94 86.08 110.92 86.27 113.37 86.73 115.3 86.82ZM115.55 29.13C115.6 23.31 115.73 16.79 115.57 11.01 114.95 11.05 113.89 11.07 113.31 11.17 98.51 13.62 86.43 20.88 77.77 33.25 77.04 34.31 74.49 37.61 75.65 38.74 76.2 38.85 76.67 38.56 77.2 38.31 78.75 37.5 80.36 36.88 81.97 36.2 92.91 31.55 103.82 30.28 115.55 29.13ZM10.7 97.27C10.78 101.24 10.8 105.21 10.77 109.18 10.77 110.44 10.47 114.44 11.2 115.25 24.13 114.17 36.2 107.41 44.74 97.78 46.16 96.17 51.73 89.38 51.23 87.4 50.98 87.23 51.04 87.23 50.76 87.2 43.01 90.78 35.47 93.75 26.97 95.12 23.64 95.64 20.29 96.11 16.94 96.51 15.07 96.73 12.49 96.95 10.7 97.27Z" fill="white"/>
</g>
</svg>
